<?xml version="1.0" encoding="UTF-8"?>
<svg id="Layer_2" data-name="Layer 2" xmlns="http://www.w3.org/2000/svg" xmlns:xlink="http://www.w3.org/1999/xlink" viewBox="0 0 251 60">
  <defs>
    <style>
      .cls-1 {
        fill: none;
      }

      .cls-2 {
        mask: url(#mask);
      }

      .cls-3 {
        fill: #fff;
      }

      .cls-4 {
        fill: #00564c;
      }

      .cls-5 {
        clip-path: url(#clippath);
      }
    </style>
    <clipPath id="clippath">
      <rect class="cls-1" width="251" height="60"/>
    </clipPath>
    <mask id="mask" x="0" y="0" width="251" height="60" maskUnits="userSpaceOnUse">
      <g id="mask0_1_309" data-name="mask0 1 309">
        <path class="cls-3" d="M251,0H0v60h251V0Z"/>
      </g>
    </mask>
  </defs>
  <g id="Layer_1-2" data-name="Layer 1">
    <g class="cls-5">
      <g>
        <g class="cls-2">
          <g>
            <path class="cls-4" d="M55.3,46.81H13.24V13.19h24.74L26.87,0H0v60h61.49l8.02-9.53-8.66-10.26-5.55,6.6Z"/>
            <path class="cls-4" d="M112.03,0h-17.28l-16.62,19.74L61.51,0h-17.27l50.51,60h17.28l-25.26-30L112.03,0Z"/>
            <path class="cls-4" d="M135.54,46.81l-14.15-16.81,14.15-16.81h39.93V0h-46.1l-25.25,29.99,25.26,30.01h46.1V23.44h-24.45l11.14,13.19h.07v10.17h-26.68Z"/>
            <path class="cls-4" d="M191.96,1.67l-.78.52c-.53-.8-1.46-1.3-2.53-1.3-1.82,0-3.21,1.32-3.21,3.26s1.39,3.26,3.21,3.26c1.07,0,1.99-.48,2.53-1.29l.75.56c-.67,1.01-1.89,1.64-3.28,1.64-2.41,0-4.19-1.73-4.19-4.16s1.78-4.15,4.19-4.15c1.41,0,2.67.63,3.31,1.67"/>
            <path class="cls-4" d="M200.37,5.03c0,2.19-1.49,3.27-3.34,3.27s-3.34-1.08-3.34-3.27V.12h.93v4.85c0,1.69,1.03,2.45,2.41,2.45s2.41-.76,2.41-2.45V.12h.93v4.92Z"/>
            <path class="cls-4" d="M205.74.12c1.7,0,2.93.59,2.93,2.13,0,.91-.49,1.54-1.22,1.79.81.27,1.39.91,1.39,1.91,0,1.57-1.16,2.24-2.95,2.24h-3.29V.12h3.14,0ZM203.53.99v2.68h2.18c1.11,0,1.98-.27,1.98-1.35s-.87-1.33-1.99-1.33h-2.17ZM203.53,4.53v2.79h2.32c1.21,0,2.01-.32,2.01-1.4s-.8-1.39-2.01-1.39h-2.32Z"/>
            <path class="cls-4" d="M216.43,8.19h-5.7V.12h5.65v.87h-4.72v2.71h4.58v.86h-4.58v2.76h4.77v.87Z"/>
            <path class="cls-4" d="M188.3,17.92l3.04,4.13h-1.12l-2.5-3.42-2.5,3.42h-1.1l3.04-4.13-2.9-3.95h1.12l2.36,3.24,2.36-3.24h1.1l-2.91,3.95Z"/>
            <path class="cls-4" d="M193.8,18.81v3.25h-.93v-8.08h3.06c1.82,0,2.87.91,2.87,2.42s-1.05,2.41-2.87,2.41h-2.13ZM193.8,14.85v3.08h2.1c1.25,0,1.93-.51,1.93-1.54s-.68-1.54-1.93-1.54h-2.1Z"/>
            <path class="cls-4" d="M206.26,22.05h-5.71v-8.08h5.66v.87h-4.72v2.71h4.58v.86h-4.58v2.76h4.77v.87Z"/>
            <path class="cls-4" d="M211.55,13.98c1.82,0,2.83.82,2.83,2.28s-1.09,2.29-2.82,2.29h-.13l2.91,3.52h-1.16l-2.86-3.52h-1.03v3.52h-.93v-8.08h3.18ZM209.3,14.85v2.85h2.24c1.23,0,1.88-.5,1.88-1.44s-.66-1.41-1.88-1.41h-2.24Z"/>
            <path class="cls-4" d="M217.14,13.98h-.93v8.08h.93v-8.08Z"/>
            <path class="cls-4" d="M225.19,22.05h-5.71v-8.08h5.65v.87h-4.72v2.71h4.57v.86h-4.57v2.76h4.77v.87Z"/>
            <path class="cls-4" d="M234.09,22.05h-.84l-5.02-6.48v6.48h-.94v-8.08h.84l5.02,6.48v-6.48h.93v8.08Z"/>
            <path class="cls-4" d="M243.46,15.53l-.78.52c-.53-.8-1.46-1.3-2.53-1.3-1.82,0-3.21,1.32-3.21,3.26s1.39,3.26,3.21,3.26c1.07,0,1.99-.48,2.53-1.29l.75.56c-.67,1.01-1.89,1.64-3.28,1.64-2.41,0-4.19-1.73-4.19-4.16s1.78-4.16,4.19-4.16c1.42,0,2.67.63,3.31,1.67"/>
            <path class="cls-4" d="M251,22.05h-5.7v-8.08h5.65v.87h-4.72v2.71h4.58v.86h-4.58v2.76h4.77v.87Z"/>
            <path class="cls-4" d="M191.81,29.07l-.69.66c-.57-.69-1.45-1.12-2.46-1.12-1.82,0-3.21,1.32-3.21,3.26s1.39,3.26,3.17,3.26,2.77-1.02,2.92-2.67h-2.52v-.86h3.53c0,.08.01.16.01.24,0,2.35-1.49,4.19-3.94,4.19-2.13,0-4.14-1.54-4.14-4.15,0-2.43,1.79-4.16,4.19-4.16,1.28,0,2.4.51,3.15,1.36"/>
            <path class="cls-4" d="M197.62,27.84c1.83,0,2.83.82,2.83,2.28s-1.09,2.29-2.82,2.29h-.13l2.91,3.52h-1.16l-2.86-3.52h-1.03v3.52h-.93v-8.08h3.18ZM195.37,28.71v2.85h2.24c1.23,0,1.88-.5,1.88-1.44s-.66-1.41-1.88-1.41h-2.24Z"/>
            <path class="cls-4" d="M210.19,31.87c0,2.42-1.77,4.16-4.19,4.16s-4.19-1.73-4.19-4.16,1.78-4.16,4.19-4.16,4.19,1.73,4.19,4.16ZM202.79,31.87c0,1.94,1.39,3.26,3.21,3.26s3.21-1.32,3.21-3.26-1.39-3.26-3.21-3.26-3.21,1.32-3.21,3.26Z"/>
            <path class="cls-4" d="M218.63,32.75c0,2.19-1.49,3.27-3.34,3.27s-3.34-1.08-3.34-3.27v-4.92h.93v4.85c0,1.69,1.03,2.45,2.41,2.45s2.41-.76,2.41-2.45v-4.85h.93v4.92Z"/>
            <path class="cls-4" d="M221.79,32.66v3.25h-.93v-8.08h3.06c1.82,0,2.87.91,2.87,2.42s-1.05,2.41-2.87,2.41h-2.13ZM221.79,28.71v3.08h2.1c1.25,0,1.93-.51,1.93-1.54s-.68-1.54-1.93-1.54h-2.1Z"/>
            <path class="cls-4" d="M55.3,46.81H13.24V13.19h24.74L26.87,0H0v60h61.49l8.02-9.53-8.66-10.26-5.55,6.6Z"/>
            <path class="cls-4" d="M112.03,0h-17.28l-16.62,19.74L61.51,0h-17.27l50.51,60h17.28l-25.26-30L112.03,0Z"/>
            <path class="cls-4" d="M135.54,46.81l-14.15-16.81,14.15-16.81h39.93V0h-46.1l-25.25,29.99,25.26,30.01h46.1V23.44h-24.45l11.14,13.19h.07v10.17h-26.68Z"/>
            <path class="cls-4" d="M191.96,1.67l-.78.52c-.53-.8-1.46-1.3-2.53-1.3-1.82,0-3.21,1.32-3.21,3.26s1.39,3.26,3.21,3.26c1.07,0,1.99-.48,2.53-1.29l.75.56c-.67,1.01-1.89,1.64-3.28,1.64-2.41,0-4.19-1.73-4.19-4.16s1.78-4.15,4.19-4.15c1.41,0,2.67.63,3.31,1.67"/>
            <path class="cls-4" d="M200.37,5.03c0,2.19-1.49,3.27-3.34,3.27s-3.34-1.08-3.34-3.27V.12h.93v4.85c0,1.69,1.03,2.45,2.41,2.45s2.41-.76,2.41-2.45V.12h.93v4.92Z"/>
            <path class="cls-4" d="M205.74.12c1.7,0,2.93.59,2.93,2.13,0,.91-.49,1.54-1.22,1.79.81.27,1.39.91,1.39,1.91,0,1.57-1.16,2.24-2.95,2.24h-3.29V.12h3.14,0ZM203.53.99v2.68h2.18c1.11,0,1.98-.27,1.98-1.35s-.87-1.33-1.99-1.33h-2.17ZM203.53,4.53v2.79h2.32c1.21,0,2.01-.32,2.01-1.4s-.8-1.39-2.01-1.39h-2.32Z"/>
            <path class="cls-4" d="M216.43,8.19h-5.7V.12h5.65v.87h-4.72v2.71h4.58v.86h-4.58v2.76h4.77v.87Z"/>
            <path class="cls-4" d="M188.3,17.92l3.04,4.13h-1.12l-2.5-3.42-2.5,3.42h-1.1l3.04-4.13-2.9-3.95h1.12l2.36,3.24,2.36-3.24h1.1l-2.91,3.95Z"/>
            <path class="cls-4" d="M193.8,18.81v3.25h-.93v-8.08h3.06c1.82,0,2.87.91,2.87,2.42s-1.05,2.41-2.87,2.41h-2.13ZM193.8,14.85v3.08h2.1c1.25,0,1.93-.51,1.93-1.54s-.68-1.54-1.93-1.54h-2.1Z"/>
            <path class="cls-4" d="M206.26,22.05h-5.71v-8.08h5.66v.87h-4.72v2.71h4.58v.86h-4.58v2.76h4.77v.87Z"/>
            <path class="cls-4" d="M211.55,13.98c1.82,0,2.83.82,2.83,2.28s-1.09,2.29-2.82,2.29h-.13l2.91,3.52h-1.16l-2.86-3.52h-1.03v3.52h-.93v-8.08h3.18ZM209.3,14.85v2.85h2.24c1.23,0,1.88-.5,1.88-1.44s-.66-1.41-1.88-1.41h-2.24Z"/>
            <path class="cls-4" d="M217.14,13.98h-.93v8.08h.93v-8.08Z"/>
            <path class="cls-4" d="M225.19,22.05h-5.71v-8.08h5.65v.87h-4.72v2.71h4.57v.86h-4.57v2.76h4.77v.87Z"/>
            <path class="cls-4" d="M234.09,22.05h-.84l-5.02-6.48v6.48h-.94v-8.08h.84l5.02,6.48v-6.48h.93v8.08Z"/>
            <path class="cls-4" d="M243.46,15.53l-.78.52c-.53-.8-1.46-1.3-2.53-1.3-1.82,0-3.21,1.32-3.21,3.26s1.39,3.26,3.21,3.26c1.07,0,1.99-.48,2.53-1.29l.75.56c-.67,1.01-1.89,1.64-3.28,1.64-2.41,0-4.19-1.73-4.19-4.16s1.78-4.16,4.19-4.16c1.42,0,2.67.63,3.31,1.67"/>
            <path class="cls-4" d="M251,22.05h-5.7v-8.08h5.65v.87h-4.72v2.71h4.58v.86h-4.58v2.76h4.77v.87Z"/>
            <path class="cls-4" d="M191.81,29.07l-.69.66c-.57-.69-1.45-1.12-2.46-1.12-1.82,0-3.21,1.32-3.21,3.26s1.39,3.26,3.17,3.26,2.77-1.02,2.92-2.67h-2.52v-.86h3.53c0,.08.01.16.01.24,0,2.35-1.49,4.19-3.94,4.19-2.13,0-4.14-1.54-4.14-4.15,0-2.43,1.79-4.16,4.19-4.16,1.28,0,2.4.51,3.15,1.36"/>
            <path class="cls-4" d="M197.62,27.84c1.83,0,2.83.82,2.83,2.28s-1.09,2.29-2.82,2.29h-.13l2.91,3.52h-1.16l-2.86-3.52h-1.03v3.52h-.93v-8.08h3.18ZM195.37,28.71v2.85h2.24c1.23,0,1.88-.5,1.88-1.44s-.66-1.41-1.88-1.41h-2.24Z"/>
            <path class="cls-4" d="M210.19,31.87c0,2.42-1.77,4.16-4.19,4.16s-4.19-1.73-4.19-4.16,1.78-4.16,4.19-4.16,4.19,1.73,4.19,4.16ZM202.79,31.87c0,1.94,1.39,3.26,3.21,3.26s3.21-1.32,3.21-3.26-1.39-3.26-3.21-3.26-3.21,1.32-3.21,3.26Z"/>
            <path class="cls-4" d="M218.63,32.75c0,2.19-1.49,3.27-3.34,3.27s-3.34-1.08-3.34-3.27v-4.92h.93v4.85c0,1.69,1.03,2.45,2.41,2.45s2.41-.76,2.41-2.45v-4.85h.93v4.92Z"/>
            <path class="cls-4" d="M221.79,32.66v3.25h-.93v-8.08h3.06c1.82,0,2.87.91,2.87,2.42s-1.05,2.41-2.87,2.41h-2.13ZM221.79,28.71v3.08h2.1c1.25,0,1.93-.51,1.93-1.54s-.68-1.54-1.93-1.54h-2.1Z"/>
          </g>
        </g>
        <path class="cls-4" d="M188.64,42.19c2.29,0,3.98,1.65,3.98,3.96s-1.68,3.96-3.98,3.96-3.98-1.65-3.98-3.96,1.69-3.96,3.98-3.96ZM188.64,43.04c-1.73,0-3.05,1.25-3.05,3.11s1.32,3.11,3.05,3.11,3.05-1.25,3.05-3.11-1.32-3.11-3.05-3.11ZM199.52,45.7v.84h-4.24v3.46h-.88v-7.7h5.33v.84h-4.44v2.57h4.24ZM206.62,45.7v.84h-4.23v3.46h-.89v-7.7h5.33v.84h-4.44v2.57h4.23ZM209.49,42.3v7.7h-.89v-7.7h.89ZM215.24,42.19c1.34,0,2.53.6,3.14,1.6l-.74.49c-.51-.76-1.39-1.24-2.4-1.24-1.73,0-3.05,1.25-3.05,3.11s1.32,3.11,3.05,3.11c1.02,0,1.89-.46,2.4-1.23l.71.53c-.64.96-1.79,1.56-3.12,1.56-2.29,0-3.98-1.65-3.98-3.96s1.69-3.96,3.98-3.96ZM225.54,49.17v.83h-5.42v-7.7h5.37v.83h-4.48v2.58h4.35v.83h-4.35v2.63h4.53ZM235.59,42.3v.84h-2.67v6.86h-.88v-6.86h-2.67v-.84h6.23ZM243.39,42.3l-3.09,7.7h-1.09l-3.09-7.7h.94l2.71,6.82,2.71-6.82h.91Z"/>
      </g>
    </g>
  </g>
</svg>